<?xml version="1.0" encoding="utf-8"?>
<!DOCTYPE svg PUBLIC "-//W3C//DTD SVG 20010904//EN" "http://www.w3.org/TR/2001/REC-SVG-20010904/DTD/svg10.dtd">
<svg version="1.0" xmlns="http://www.w3.org/2000/svg" width="500px" height="705px" viewBox="0 0 500 705" preserveAspectRatio="xMidYMid meet">
 <g fill="#000000">
  <path d="M267.7 674.4 c-0.1 -0.1 -4.3 -0.5 -9.3 -0.8 -8.2 -0.6 -13.9 -1.4 -22.9 -3.1 -1.6 -0.3 -3.9 -0.8 -5 -1 -28 -5.1 -70.2 -24.8 -90.8 -42.3 l-5.9 -5 -0.3 -132.3 c-0.2 -72.8 -0.4 -188.4 -0.4 -256.9 -0.1 -68.5 -0.1 -132.5 -0.1 -142.2 -0.1 -10.5 0.3 -17.8 0.9 -17.8 0.5 0 2.7 1.5 5 3.3 2.2 1.7 5.9 4.6 8.3 6.3 2.4 1.7 10.5 7.8 18.2 13.5 7.6 5.7 15.6 11.7 17.7 13.2 2.2 1.5 3.9 3.6 4 4.5 0.2 3.5 1.5 230.3 2.4 400.6 l0.4 78.8 2.3 1.6 c1.3 0.9 2.5 1.7 2.8 1.7 0.3 0 1.2 0.5 2 1 3.2 2 17.1 8.5 18.3 8.5 0.7 0 2.1 0.6 3.2 1.3 1.1 0.8 3.1 1.7 4.5 2.1 7.1 2.1 9.7 2.8 11.5 3.1 1.1 0.2 3.1 0.7 4.5 1.3 1.4 0.5 2.8 1 3.3 1 0.4 0.1 2.2 0.3 4 0.6 1.7 0.3 5.7 0.8 8.7 1.1 3 0.4 6.6 0.8 8 1.1 6.8 1.3 43.4 -0.8 45.5 -2.6 0.6 -0.5 3.7 -1.2 6.8 -1.6 3.2 -0.4 6 -1.1 6.3 -1.5 0.3 -0.5 1.6 -0.9 2.9 -0.9 1.3 0 2.7 -0.4 3 -1 0.3 -0.5 1.5 -1 2.6 -1 1 0 2.7 -0.4 3.7 -0.9 4.2 -2.1 9.4 -4.1 10.7 -4.1 0.8 0 1.5 -0.4 1.5 -0.9 0 -0.5 1.4 -1.2 3 -1.6 1.7 -0.4 3 -1 3 -1.5 0 -0.4 1.2 -1.1 2.6 -1.4 1.4 -0.4 4.7 -2.2 7.4 -4.1 2.8 -1.9 5.4 -3.5 5.9 -3.5 0.5 0 1.6 -0.6 2.3 -1.2 0.7 -0.7 3.5 -2.9 6.1 -4.8 2.7 -1.9 6.4 -5 8.4 -6.7 2 -1.8 4 -3.3 4.4 -3.3 0.5 0 0.9 -0.6 0.9 -1.2 0 -0.7 1.4 -2.2 3 -3.3 1.6 -1.1 3 -2.2 3 -2.6 0 -0.3 1.6 -2.3 3.6 -4.4 4 -4.4 13.7 -17.6 17.1 -23.3 1.2 -2 2.8 -4.7 3.5 -5.9 6 -10.2 14.9 -31.6 16.4 -39.8 0.2 -1.1 1.3 -6 2.5 -11 3.9 -16.5 3.2 -60.3 -1.1 -67.7 -0.6 -1 -1 -2.7 -1 -3.8 0 -1.2 -0.9 -5.1 -2.1 -8.8 -2.1 -6.9 -2.6 -8.1 -5.3 -14.4 -0.9 -2 -1.6 -4.1 -1.6 -4.7 0 -0.6 -0.4 -1.1 -0.9 -1.1 -0.5 0 -1.2 -1.2 -1.5 -2.6 -0.9 -3.4 -10.5 -19.4 -16.9 -28 -5.1 -6.8 -20.4 -22.8 -28.2 -29.3 -3.7 -3.2 -15.3 -11.1 -20 -13.7 -8.7 -4.8 -12.8 -6.9 -18 -9 -3.3 -1.4 -6.9 -2.9 -8 -3.4 -1.1 -0.5 -4.2 -1.6 -6.8 -2.5 -4.2 -1.3 -7.1 -2.1 -16.2 -4.1 -1.1 -0.3 -3.5 -0.7 -5.4 -0.9 -1.8 -0.3 -3.6 -0.7 -4 -0.9 -1.2 -0.8 -20.8 -1.9 -30.1 -1.7 -14.4 0.3 -37.3 4.1 -43.2 7.2 -1 0.5 -2.7 0.9 -3.8 0.9 -1.9 0 -2 -0.7 -2.1 -10.7 0 -6 0 -13.9 0.1 -17.8 0.1 -3.8 0.2 -11.9 0.2 -18 l0.1 -11 2.8 -1.2 c6.7 -2.8 30.3 -5.6 48.4 -5.6 19.4 -0.1 26.5 0.5 39.6 2.9 4.6 0.9 9.3 1.7 10.4 1.9 2.4 0.3 9.4 2.2 15 4 2.2 0.6 6 1.8 8.5 2.5 2.5 0.8 5.6 1.9 7 2.6 3.7 1.8 8.9 3.7 9.2 3.3 0.2 -0.2 1.7 0.6 3.5 1.9 1.7 1.2 3.6 2.2 4.1 2.2 3.5 0 25.7 13.6 41.7 25.6 11 8.2 35.2 32.7 37.8 38.2 0.5 1.2 1.3 2.2 1.7 2.2 0.8 0 12.8 17.6 15 22 0.7 1.4 1.6 2.7 2 3 0.8 0.6 11 21.7 11 22.8 0 0.9 2.2 6 4.1 9.4 0.5 1 0.9 2.7 0.9 3.8 0 1.1 0.5 2 1 2 0.6 0 1 1.3 1 2.9 0 1.7 0.4 3.2 0.9 3.5 0.5 0.3 1.1 2 1.4 3.8 1.1 6.4 3.2 15.3 3.8 16.3 3.1 4.7 5.4 48.9 3.5 65.9 -0.6 5.8 -3.1 21.1 -4 25.1 -0.2 1.1 -0.9 4 -1.5 6.5 -0.9 4.2 -6.4 21.7 -7.8 25 -0.3 0.8 -0.7 2 -0.8 2.5 -0.2 0.6 -1.5 3.7 -2.9 7 -1.5 3.3 -2.6 6 -2.4 6 0.2 0 -0.7 1.4 -2 3.2 -1.2 1.7 -2.2 3.6 -2.2 4.3 0 2.6 -14.1 24.6 -25.2 39.3 -9.5 12.4 -27.6 30.1 -39.8 38.6 -19.3 13.5 -26.7 17.6 -49.5 27.6 -14.3 6.3 -38.3 12.1 -59.5 14.5 -9 1 -31.6 2 -32.3 1.4z"/>
  <path d="M21 354.5 l0 -268.5 30.6 -41.2 c16.8 -22.7 31 -41.7 31.5 -42.3 0.5 -0.5 0.9 129 0.9 309.8 l0 310.7 -31.5 0 -31.5 0 0 -268.5z"/>
 </g>
 <g fill="#ff7272">
  <path d="M237.7 703.4 c-0.2 -0.2 -2.4 -0.6 -4.8 -0.9 -7.2 -0.8 -12.2 -1.4 -15.9 -2.1 -4.6 -0.9 -5.9 -1.1 -9.7 -1.7 -1.7 -0.3 -4.1 -1.1 -5.3 -1.7 -1.2 -0.6 -2.4 -0.9 -2.7 -0.7 -0.2 0.3 -2 -0.1 -3.9 -0.9 -1.9 -0.8 -3.4 -1.2 -3.4 -0.9 0 0.3 -0.9 0.1 -2.1 -0.5 -1.1 -0.6 -2.8 -1.3 -3.7 -1.5 -0.9 -0.2 -4.2 -1.3 -7.2 -2.5 -3 -1.2 -5.9 -2.3 -6.5 -2.4 -6 -1.7 -24.4 -11.3 -35.1 -18.3 -3.6 -2.4 -6.8 -4.3 -7.3 -4.3 -0.4 0 -1.6 -0.9 -2.6 -2 -1 -1.1 -2.4 -2 -3.1 -2 -0.7 0 -2.4 -1.3 -3.7 -3 -1.4 -1.6 -3 -3 -3.5 -3 -3.6 0 -3.7 -1.5 -3.9 -73.9 -1 -313 -1.1 -478.1 -0.3 -478.1 0.4 0 2.6 1.5 4.8 3.3 2.2 1.7 6.4 4.9 9.4 7.1 l5.5 3.8 0.2 120.2 c0.2 66 0.4 179.7 0.6 252.5 l0.3 132.3 5.9 5 c20.7 17.6 62.8 37.2 91.1 42.4 1.2 0.2 3.4 0.6 5 0.9 35.8 7 76.7 4.1 112.7 -8 4.4 -1.5 9.4 -3.3 11 -4 22.8 -10 30.2 -14.1 49.5 -27.6 7.4 -5.2 17 -13.6 26.8 -23.8 l9.4 -9.6 -5.3 8 c-11.1 16.8 -32.3 39.6 -47.3 51 -1.5 1.1 -3.9 3 -5.3 4.3 -1.4 1.2 -2.9 2.2 -3.3 2.2 -0.4 0 -2.5 1.3 -4.6 3 -2.2 1.6 -4.4 3.3 -4.9 3.7 -0.6 0.5 -3.6 2.2 -6.8 3.8 -3.1 1.7 -5.7 3.3 -5.7 3.8 0 0.4 -0.6 0.7 -1.2 0.7 -0.7 0 -4.4 1.6 -8.1 3.5 -3.8 1.9 -7.5 3.5 -8.3 3.5 -0.8 0 -1.4 0.5 -1.4 1 0 0.6 -0.7 1 -1.6 1 -1.5 0 -6.6 2 -10.6 4.1 -1 0.5 -2.5 0.9 -3.3 0.9 -0.8 0 -2.3 0.4 -3.3 0.9 -2.6 1.3 -8.6 3.1 -10.5 3.1 -1 0 -2.5 0.4 -3.5 1 -0.9 0.5 -9.3 2.2 -18.7 3.6 -13 2.1 -21.2 2.8 -35.2 2.9 -10 0.1 -18.4 0.1 -18.6 -0.1z"/>
  <path d="M0 384.5 l0 -268.4 10.5 -14.2 10.5 -14.1 0 267.6 0 267.6 21 0 21 0 0 15 0 15 -31.5 0 -31.5 0 0 -268.5z"/>
  <path d="M404.6 555.5 c0.9 -2.2 1.9 -4.4 2.4 -5 0.8 -1.1 6.2 -15.3 6 -15.7 0 -0.2 0.6 -2 1.5 -4 0.8 -2.1 1.3 -3.8 1 -3.8 -0.2 0 0 -1.2 0.6 -2.7 1.2 -3.1 1.8 -5.5 2.4 -9.5 0.2 -1.5 0.6 -3.5 0.9 -4.5 3.5 -11.6 1.8 -59.5 -2.4 -67.4 -0.6 -1 -1 -2.9 -1 -4.3 0 -1.4 -0.4 -2.8 -1 -3.1 -0.5 -0.3 -1 -1.9 -1 -3.6 0 -1.6 -0.4 -2.9 -1 -2.9 -0.5 0 -1 -0.8 -1 -1.9 0 -3.7 -9.1 -23.1 -15.2 -32.4 -2.1 -3.2 -3.8 -6 -3.8 -6.3 0 -0.4 -4.4 -6.3 -8.5 -11.3 -2.2 -2.7 -19.5 -20 -24.3 -24.3 -9.7 -8.7 -42.3 -26.5 -51.5 -28.2 -1.5 -0.2 -3.1 -0.7 -3.7 -1.1 -0.5 -0.3 -1.8 -0.8 -2.8 -1 -0.9 -0.1 -3.6 -0.8 -6 -1.5 -2.4 -0.6 -5.8 -1.3 -7.5 -1.6 -1.8 -0.2 -4.5 -0.7 -6.2 -1 -8.2 -1.4 -11 -1.6 -24 -1.9 -12.8 -0.3 -37 2.1 -42.5 4.2 -0.8 0.4 -4.2 1.4 -7.5 2.3 l-6 1.6 -0.1 -28.6 -0.1 -28.7 3.1 -1.1 c3.1 -1.1 13.8 -3.2 16.2 -3.2 0.9 0 1.3 1.7 1.3 5.3 -0.2 24.2 0 26.7 2.1 26.7 1.1 0 2.8 -0.4 3.8 -0.9 5.9 -3.1 28.8 -6.9 43.2 -7.2 9.3 -0.2 28.9 0.9 30.1 1.7 0.4 0.2 2.2 0.6 4 0.9 1.9 0.2 4.3 0.6 5.4 0.9 9.1 2 12 2.8 16.2 4.1 2.6 0.9 5.7 2 6.8 2.5 1.1 0.5 4.7 2 8 3.4 5.2 2.1 9.3 4.2 18 9 4.7 2.6 16.3 10.5 20 13.7 7.8 6.5 23.1 22.5 28.2 29.3 6.4 8.6 16 24.6 16.9 28 0.3 1.4 1 2.6 1.5 2.6 0.5 0 0.9 0.5 0.9 1.1 0 0.6 0.7 2.7 1.6 4.7 2.7 6.3 3.2 7.5 5.3 14.4 1.2 3.7 2.1 7.6 2.1 8.8 0 1.1 0.4 2.8 1 3.8 4.3 7.4 5 51.2 1.1 67.7 -1.2 5 -2.3 9.9 -2.5 11 -1.6 8.6 -11 31.1 -16.7 40 -1 1.7 -2.3 3.9 -2.8 5.1 -0.5 1.1 -3.1 5 -5.8 8.6 -2.6 3.5 -5.6 7.5 -6.5 8.9 -1.7 2.3 -1.7 2.2 -0.2 -1.6z"/>
 </g>
</svg>